# xmcd
#
# Track frame offsets:
#	150
#	17598
#	35967
#	50979
#	65897
#	84439
#	101721
#	120454
#	140181
#	158541
#
# Disc length: 2354 seconds
#
# Revision: 0
# Processed by: cddbd v1.5.2PL0 Copyright (c) Steve Scherf et al.
# Submitted via: EasyCDDAExtractor 11.0.2.1
#
DISCID=9009300a
DTITLE=any- amp - any-amp
DYEAR=2006
DGENRE=Acapella
TTITLE0=หน้ากาก
TTITLE1=ไม่รักแต่ไม่ลืม
TTITLE2=พอ
TTITLE3=เหนื่อย
TTITLE4=ถือว่าเป็นอีกปีที่ฉันพอใจ
TTITLE5=คนไปไม่เสียใจเท่าคนที่อยู่
TTITLE6=น้ำตาแพง
TTITLE7=ฉันทำไม่ได้
TTITLE8=เจ้าหมาดำกับคุณยาย
TTITLE9=ใจคน วันวน ทะเล
EXTD=
EXTT0=
EXTT1=
EXTT2=
EXTT3=
EXTT4=
EXTT5=
EXTT6=
EXTT7=
EXTT8=
EXTT9=
PLAYORDER=
